<svg xmlns="http://www.w3.org/2000/svg" xmlns:xlink="http://www.w3.org/1999/xlink" viewBox="0 0 866.46 798.97"><defs><style>.cls-1{fill:none;}.cls-2{isolation:isolate;}.cls-3{fill:#050505;}.cls-4{fill:#0600a8;}.cls-5{fill:#0e0d0f;}.cls-6{fill:#f2a78e;}.cls-7{fill:#fff;}.cls-8{fill:#1e0a36;}.cls-9{fill:#575757;}.cls-10{fill:#383838;}.cls-11{fill:#d0976b;}.cls-12{fill:#b6b1b9;}.cls-13{opacity:0.5;mix-blend-mode:screen;fill:url(#linear-gradient);}.cls-14{fill:#351851;}.cls-15{fill:#d41515;}.cls-16{clip-path:url(#clip-path);}.cls-17{fill:#e67168;}.cls-18{fill:#ececec;}.cls-19{clip-path:url(#clip-path-2);}</style><linearGradient id="linear-gradient" x1="36.55" y1="385.49" x2="309.17" y2="262.6" gradientUnits="userSpaceOnUse"><stop offset="0" stop-color="#55c4ba"/><stop offset="0.89"/></linearGradient><clipPath id="clip-path"><path class="cls-1" d="M123.53,474.2c0,35.92-25.21,50.47-56.32,32.52S10.9,445.09,10.9,409.18s25.21-50.48,56.31-32.52S123.53,438.29,123.53,474.2Z"/></clipPath><clipPath id="clip-path-2"><path class="cls-1" d="M281.56,154c52,30,94.21,76.85,94,136.74s-42.81,171.17-94.83,141.14-93.89-190.23-93.72-250S229.44,123.88,281.56,154Z"/></clipPath></defs><g class="cls-2"><g id="Layer_2" data-name="Layer 2"><g id="Layer_1-2" data-name="Layer 1"><path class="cls-3" d="M321.52,606.39a95.28,95.28,0,0,1,.92,11.54c.18,7.19-12.44,29.25-12.44,29.25s-55.59-3.12-56.25-9.62c8.24-28.35,22.8-54,22.8-54l16.74-12.5,38.19,15.95Z"/><path class="cls-4" d="M408.54,150.31s-50.21,15.74-49.89,88-7.36,163.2-10,178.27c-12.06,44.89-55.33,104.59-56.35,131.13s27.23,44.16,53.16,37.7,78.66-126,85.88-146.75,7.47-113.79,25.6-184C438.49,235.17,408.54,150.31,408.54,150.31Z"/><path class="cls-5" d="M518.62,799c14.38-56.09,31.76-129.8,36.57-175.52.66-2.9,18.2-1.18,27.72-4,21,91.75,37,144,48.76,179.56H732.32a135.31,135.31,0,0,0-6.13-15.08C714.47,738.8,721.57,636,701.64,558.18,696,543.62,566.8,536.44,566.8,536.44s-130.45,7.18-134.9,11C417.72,619.56,409.11,726.67,403.84,799Z"/><polygon class="cls-6" points="538.61 129.81 565.73 148.99 586.25 200.99 560.71 251.12 482.96 246.58 441.96 201.34 500.85 126.66 538.61 129.81"/><path class="cls-7" d="M566.87,194.73s-28.26,33.63-65.49,30.07C479,222.62,466,190.25,466,190.25L444,194.73V245l54.27,47.27,78.89-45.94,5.34-49.93Z"/><path class="cls-8" d="M696.88,526.56a240.83,240.83,0,0,0,4.76,31.62c1.55,7.24-15.06,37-90.82,37-95.52,0-180.41-38.56-178.92-47.75,2.44-15.51,5.39-33.93,5.39-33.93Z"/><path class="cls-4" d="M549.91,143.49c9.45,6.06,22.17,30.24,17.46,56.15s-50.85,50.78-69.09,61.86c-29.4-20.16-51.61-81.48-31.12-123-3-3.93-53.77,6.66-64.85,15.08C373.13,179.93,376,253.12,379,289.81c6.26,76.66,46.81,94.93,52.88,217.5,2.53,51.52,289.67,117.65,266.82-2.25s-12.14-214.58-12.14-214.58-22.47-110.2-24.72-115.85C625.26,166.38,595,152.22,549.91,143.49Z"/><path class="cls-8" d="M637,168s-18.44-2.62-21.59-.11C605.1,176.18,597,203,563.88,209.13,564.25,204,600.47,149,600.47,149Z"/><path class="cls-4" d="M563.88,209.13c37.21-21.25,29.85-34.83,53.33-47.33L637,168s-11-30.7-35.62-35.64-34.06-.48-43.51-1.81-17.26-4.14-22.44-3.9C575.38,165.55,560.54,191.48,563.88,209.13Z"/><polygon class="cls-3" points="686.58 290.48 684.99 305.06 660.88 279.42 684.32 279.42 686.58 290.48"/><path class="cls-3" d="M805.56,441.15s-13.22,22.19-16,33,1.81,39.48,5.39,41.72,11.46,0,13.33-6.08c.13,3.11,1.64,49.53,9.41,51.45,22.08,5.5,48.34-51.45,48.79-60.86s-13.85-57.26-13.85-57.26l-22.65-9Z"/><path class="cls-6" d="M402.31,94.71s3.09,8.76,6.34,12.55c-1.41,5.37-1.43,15-1.43,15l6.28,15.47,11,9.19,34.08,2,31.86-8.32,7.86-20.16-6.77-18.81-30.92-9.45-44.87-.92Z"/><path class="cls-8" d="M295.7,551.75a348.43,348.43,0,0,1-19.15,31.85c11-6.49,44.11,4.48,45,22.79,7.89-10.92,12.59-16.39,25.14-27.57C360.4,566.65,306.92,530.92,295.7,551.75Z"/><path class="cls-9" d="M798,407.06s2.38,18.09,4.58,33,52.07,11.43,51.78-.79c-.33-14,.83-32.23.83-32.23Z"/><path class="cls-10" d="M617,218.34c19.68-66.25,70.44-41.68,95.19-26s119.1,72.22,132.22,87.19c9.8,11.17,20,117.05,11.24,132.28-10.33,18-51.42,18.22-59.23,0-6.72-15.71-11.19-51.13-17.76-80.39-37.38-16.48-106.17-47.16-106.17-47.16S604.27,261.37,617,218.34Z"/><path class="cls-8" d="M552.64,114.27c-1.42,24.53-25.08,30.9-25.08,30.9s-.61,17.09-5.32,23.15-34.52,32.19-54.45,39.35c-9.29,3.34-44.58,2.22-46.83-16.74s-14.2-62.83-13.74-68.63c9,4.49,5.28,9.73,13.74,13.66,6.53,3,16.46.48,25.05,1.57,33.2,4.26,50.81-3.8,43.95-20.62-2.29-5.52-26.38-4.28-49-7.73-20-3-38.95-10.84-38.64-14.47.61-7.68,3-109.63,97.85-92.85C583.36,16.61,552,104.34,552.64,114.27Z"/><path class="cls-3" d="M286.84,645.49c12.05,1,22.22-2.54,22.64-7.85s-9-10.47-21-11.47-21.87-1.6-22.69,7.83C264.48,648.91,274.77,644.5,286.84,645.49Z"/><path class="cls-4" d="M294.35,400.75v209a3.73,3.73,0,0,1-2.17,3,11.59,11.59,0,0,1-10.39,0,3.59,3.59,0,0,1-2.17-3v-209Z"/><path class="cls-11" d="M292.17,404a11.5,11.5,0,0,1-10.41,0c-2.87-1.66-2.87-4.35,0-6a11.5,11.5,0,0,1,10.41,0C295.05,399.67,295.05,402.36,292.17,404Z"/><g class="cls-2"><path class="cls-12" d="M205.11,137.45l10.77-6.26c17.15-10,45.12-2.08,76.72,16.16l-10.78,6.26C250.22,135.37,222.26,127.48,205.11,137.45Z"/><path class="cls-12" d="M327,425.17l-10.77,6.27c34.74-20.19,59.48-95.6,59.6-141.09.17-59.88-42-106.7-94-136.74l10.78-6.26c52,30,94.21,76.86,94,136.74C386.51,329.58,361.78,405,327,425.17Z"/><path class="cls-7" d="M281.82,153.61c52,30,94.21,76.86,94,136.74S333.05,461.53,281,431.5s-93.89-190.23-93.72-250S229.71,123.53,281.82,153.61Z"/></g><polygon class="cls-13" points="233.73 133.99 71.66 327.53 101.76 381.78 335.39 413.39 233.73 133.99"/><path class="cls-14" d="M0,291.75c0-7.89,5.59-11.12,12.43-7.17L122,347.84c6.84,3.94,12.42,13.63,12.42,21.51V653.61c0,7.89-5.59,11.12-12.42,7.17L12.43,597.52C5.59,593.58,0,583.89,0,576Z"/><path class="cls-7" d="M127.52,633.25a8,8,0,0,1-3.84-1.23L14.1,568.76C8.28,565.4,3.36,556.87,3.36,550.14V291.75c0-1.65.34-5.5,3.54-5.5a8,8,0,0,1,3.85,1.23l109.58,63.26c5.82,3.37,10.74,11.89,10.74,18.61v258.4C131.07,629.4,130.72,633.25,127.52,633.25Z"/><path class="cls-8" d="M134.42,653.61V369.35c0-7.88-5.58-17.57-12.42-21.51L12.43,284.58c-3.3-1.91-6.31-2.13-8.54-1h0l14.74-8.47c2.2-1,5.12-.74,8.3,1.09l109.58,63.26c6.83,3.95,12.42,13.63,12.42,21.52V645.26c0,4-1.44,6.8-3.75,8.08l-13.73,7.82C133.3,659.72,134.42,657.14,134.42,653.61Z"/><path class="cls-15" d="M123.53,474.2c0,35.92-25.21,50.47-56.32,32.52S10.9,445.09,10.9,409.18s25.21-50.48,56.31-32.52S123.53,438.29,123.53,474.2Z"/><g class="cls-16"><path class="cls-6" d="M79.65,490.37a40.45,40.45,0,0,1-14.41-5.31,67.68,67.68,0,0,1-13.47-10.41c.15.11.33.22.51.33,3,1.73,9.46,3.09,12.78,3.23,3,.14,8.25,2.2,9.64,1.79.08,1.43.19,2.76.35,3.78a7.41,7.41,0,0,0,2.3,4.39Z"/><path class="cls-17" d="M68.22,475.88a18.46,18.46,0,0,0,6.39-.52c0,1.41.07,3,.09,4.61-1.39.44-6.62-1.62-9.64-1.76-3.32-.14-9.78-1.5-12.78-3.23-.18-.11-.36-.22-.51-.33a2.94,2.94,0,0,1-.92-.91l2.31.47c1.33.35,2.09-.45,2.31-1.73A60.32,60.32,0,0,0,56,465a68.1,68.1,0,0,0,5.91,7.26,16.65,16.65,0,0,0,3,2.11l.11.06.12.07A11.94,11.94,0,0,0,68.22,475.88Z"/><path class="cls-5" d="M67,510.34l-.46-.25-1.39-.78-1.38-.82-.47-.29c-.3-.19-.61-.37-.91-.57l-.54-.34-.83-.54-.58-.4-.78-.52-.61-.43-.74-.53-.62-.45-.72-.53-.62-.48-.7-.54-.63-.49-.69-.56-.62-.5-.69-.57-.62-.52-.67-.58c-.21-.18-.42-.36-.62-.55s-.45-.39-.67-.59l-.61-.55-.66-.6-.61-.58-.64-.61-.61-.59-.64-.62-.6-.6-.62-.64-.6-.61-.62-.65-.59-.62c-.2-.22-.41-.44-.61-.67l-.58-.63c-.21-.22-.41-.45-.61-.67l-.57-.65-.6-.69-.57-.65-.58-.69-.57-.68-.56-.69-.56-.69-.58-.72-.54-.68-.66-.86-.43-.56c-.36-.47-.71-.94-1.06-1.42l-.49-.68c-.19-.26-.39-.52-.57-.78s-.33-.46-.49-.7l-.56-.78-.49-.72-.53-.77-.5-.75-.5-.76c-.16-.25-.33-.5-.49-.76l-.5-.76-.47-.76-.49-.78c-.16-.25-.31-.51-.47-.77l-.33-.54a7.48,7.48,0,0,1,2-.65,11.88,11.88,0,0,1,4.81.36l2.15.59,14.17,2.86a2.94,2.94,0,0,0,.92.91,67.68,67.68,0,0,0,13.47,10.41,40.45,40.45,0,0,0,14.41,5.31l6,5.71,8.18,7.78,2.06,1.85a37.84,37.84,0,0,1,5.49,6.11q.75,1,1.38,2.07l-.34.17-.47.22-.49.22-.48.21-.49.19-.5.19-.49.17-.52.18-.5.15-.53.16-.53.13-.51.14-.56.12-1,.19-.61.11-.53.08-.56.07-.57.06-.55.06-.58,0-.55,0-.59,0H89.1l-.57,0-.61,0-.59,0-.61,0-.59-.05-.62-.07-.6-.08q-.31,0-.63-.09l-.6-.09L83,516.2l-.61-.12-.64-.13-.62-.13-.65-.16-.62-.15-.66-.18-.63-.17-.67-.2-.62-.19-.69-.23-.62-.21-.7-.25-.62-.22-.71-.28-.62-.24-.72-.3-.62-.27-.73-.32-.62-.28-.77-.37-.59-.28c-.28-.13-.55-.28-.83-.42l-.54-.27Z"/><path class="cls-4" d="M75.36,407.63A24.47,24.47,0,0,1,80,416.52a13.89,13.89,0,0,1,.49,4.72c-.22,2.37-1.93,4-4.31,5.1-5.08,2.35-13.22,2.3-16.48,2,.63.05,2.2-6.34,2.66-7.2a25.19,25.19,0,0,1,2.43-3.81,23.07,23.07,0,0,1-5.51,3.17c-.86.35-7.58,1-7.57,1.77,0-6.89,2.82-10.18,2.49-10.37-.68,1.33-2.2,2-3,3.06-3.6,4.53-4.86,12-4.53,20.2a62.16,62.16,0,0,1-2.7-8.26c-.2-.78-.38-1.55-.54-2.33a51.62,51.62,0,0,1-1.12-12.06c-.7.23-1.39.49-2.06.78-.19-6.91,2.15-12.4,6.44-15.08s10.49-2.55,17,.38a31.2,31.2,0,0,1,2.87,1.47A31.93,31.93,0,0,1,75.36,407.63Z"/><path class="cls-6" d="M78,430.49c4,8.91,5.94,18.21,5.52,26a16.6,16.6,0,0,0,2.94-4.65,92.88,92.88,0,0,1-1.91,13.24c-.17.73-.34,1.38-.51,1.93-.6,2-1.7,5.28-3.25,6.09a27.48,27.48,0,0,1-6.18,2.26,18.46,18.46,0,0,1-6.39.52,11.94,11.94,0,0,1-3-1.39,17.62,17.62,0,0,1-3.26-2.24A68.1,68.1,0,0,1,56,465c-2.21-3-4.53-6.53-6.61-10-1.54-2.6-2.61-7.12-3.2-9.81-.17-.75-.33-1.6-.5-2.54a143.52,143.52,0,0,1-1.84-15.73,62.16,62.16,0,0,0,2.7,8.26c-.33-8.23.93-15.67,4.53-20.2.85-1.09,2.37-1.73,3-3.07.34.2-2.49,3.49-2.48,10.38,0-.74,6.71-1.42,7.57-1.77a23.07,23.07,0,0,0,5.51-3.17,25.19,25.19,0,0,0-2.43,3.81c-.46.86-2,7.25-2.66,7.2,3.26.3,11.4.35,16.48-2C76.72,427.72,77.39,429.11,78,430.49Z"/><path class="cls-6" d="M43.79,425.36q0,.54,0,1a140,140,0,0,0,1.89,16.79c-1.93-1.43-4.06-6.16-5.11-10.07-1.26-4.66-.53-8.37,1.63-8.31a2.76,2.76,0,0,1,1.23.39Z"/><path class="cls-6" d="M88.52,451.49a10.7,10.7,0,0,1,1.58,10.16c-1.13,2.81-3.43,5.16-5.43,4l-.12-.08A93.49,93.49,0,0,0,86.48,452c.11-.58.2-1.19.28-1.81a3.65,3.65,0,0,1,.53.25A5,5,0,0,1,88.52,451.49Z"/><path class="cls-4" d="M80,416.52c3.7,2.72,7,11.45,7.78,15.59,1.21,6.65,1,12.86-.55,17.78a20.55,20.55,0,0,1-.72,1.95,16.6,16.6,0,0,1-2.94,4.65c.42-7.79-1.54-17.09-5.52-26-.61-1.38-1.28-2.77-1.87-4.15,2.38-1.1,4.09-2.73,4.31-5.1A13.89,13.89,0,0,0,80,416.52Z"/></g><polygon class="cls-7" points="91.84 413.57 103.88 420.52 103.88 434.43 104.91 435.02 104.91 419.93 91.84 412.38 91.84 413.57"/><polygon class="cls-7" points="42.59 385.14 30.55 378.18 30.55 392.09 29.52 391.49 29.52 376.4 42.59 383.95 42.59 385.14"/><polygon class="cls-7" points="91.84 498.24 103.88 505.19 103.88 491.29 104.91 491.88 104.91 506.98 91.84 499.43 91.84 498.24"/><polygon class="cls-7" points="42.59 469.81 30.55 462.86 30.55 448.95 29.52 448.36 29.52 463.45 42.59 471 42.59 469.81"/><path class="cls-7" d="M83.14,453.38a2.65,2.65,0,0,0-1.2-2.07.78.78,0,0,0-.92,0l-6.65-8.72a1.06,1.06,0,0,0,.13-.53A2.65,2.65,0,0,0,73.3,440c-.61-.36-1.11-.11-1.18.54l-13.71-7.92a2.67,2.67,0,0,0-1.19-1.91c-.66-.38-1.19-.07-1.19.69a2.08,2.08,0,0,0,.12.68l-6.64,1a2.56,2.56,0,0,0-.93-1c-.66-.38-1.2-.07-1.19.69a2.62,2.62,0,0,0,1.16,2.05l1,13.78c-.46-.07-.79.24-.79.84a2.65,2.65,0,0,0,1.2,2.07,1.29,1.29,0,0,0,.45.16L54,459.56a.8.8,0,0,0-.4.79,2.65,2.65,0,0,0,1.2,2.07c.46.26.85.19,1.05-.13l8.21,8.43a1.55,1.55,0,0,0,0,.32,2.65,2.65,0,0,0,1.2,2.07c.66.39,1.19.08,1.19-.69a1.61,1.61,0,0,0,0-.37l8.24,1.07a2.59,2.59,0,0,0,1,1.34c.66.38,1.2.07,1.2-.69a2.51,2.51,0,0,0-.41-1.27L80,468.67a1.85,1.85,0,0,0,.56.49c.66.39,1.19.08,1.19-.69a2.68,2.68,0,0,0-.94-1.89L82,454.08C82.61,454.44,83.14,454.14,83.14,453.38Zm-3.54,13-4.66-6.58a1,1,0,0,0,.16-.57,2.38,2.38,0,0,0-.31-1.1l6.47-4.74a2.37,2.37,0,0,0,.43.46l-1.13,12.5A.76.76,0,0,0,79.6,466.42ZM57.75,448.79l6.35-.32a2.69,2.69,0,0,0,1,1.61v8.1a.71.71,0,0,0-.8.05l-6.61-8.42a1,1,0,0,0,.12-.52A2.23,2.23,0,0,0,57.75,448.79Zm.66-15.88,13.71,7.92a2.52,2.52,0,0,0,.33,1l-6.85,5.86a2,2,0,0,0-.34-.26,1,1,0,0,0-.29-.12l-6.89-13.78A.78.78,0,0,0,58.41,432.91Zm7,25.43v-8.1a.68.68,0,0,0,1-.44l6.37,7.63a1.17,1.17,0,0,0-.08.45,2,2,0,0,0,.1.64l-6.62.8A2.68,2.68,0,0,0,65.39,458.34Zm15.48-6.87a1,1,0,0,0-.12.53,2.45,2.45,0,0,0,.31,1.1l-6.48,4.74a2.21,2.21,0,0,0-.68-.65.77.77,0,0,0-1,0l-6.47-7.74a2.58,2.58,0,0,0-.59-1.52l6.8-5.81a2.48,2.48,0,0,0,.64.58.79.79,0,0,0,.92,0ZM56.3,432.4a2.57,2.57,0,0,0,.92,1.05,1,1,0,0,0,.64.15l6.84,13.66c-.38,0-.64.32-.64.85l-6.43.32a2.64,2.64,0,0,0-1-1.21.93.93,0,0,0-.61-.15l-6.54-12.21a.88.88,0,0,0,.31-.74,2,2,0,0,0-.13-.67Zm-7.48,2.52a.79.79,0,0,0,.45,0l6.51,12.18a.83.83,0,0,0-.35.78,2.22,2.22,0,0,0,.16.78l-4.8.92a2.41,2.41,0,0,0-.84-.89l-.14-.06Zm1.82,16.7c.31-.08.5-.37.5-.83A2.21,2.21,0,0,0,51,450l4.79-.93a2.63,2.63,0,0,0,.65.78l-1.52,9.87-.05,0a1,1,0,0,0-.58-.15ZM56,462.05a1.07,1.07,0,0,0,.05-.32,2.69,2.69,0,0,0-.87-1.83L56.68,450a.77.77,0,0,0,.88,0l6.6,8.43a1.13,1.13,0,0,0-.11.51,2.68,2.68,0,0,0,1.06,2v9.38a.68.68,0,0,0-.92.19ZM66.3,471.7a2.72,2.72,0,0,0-.91-1.25v-9.38c.59.26,1-.05,1-.76a2,2,0,0,0-.11-.63l6.63-.8A2.62,2.62,0,0,0,73.9,460a.05.05,0,0,1,0,0l1.44,11.59c-.51-.13-.88.18-.88.82a1.55,1.55,0,0,0,0,.37Zm10,.49a2,2,0,0,0-.56-.49l0,0-1.43-11.6a.66.66,0,0,0,.56-.07l4.69,6.61a1.13,1.13,0,0,0-.09.47,2.45,2.45,0,0,0,.41,1.27Z"/><path class="cls-18" d="M111.19,588c0,3-2.13,4.26-4.75,2.75l-83.7-48.33A10.53,10.53,0,0,1,18,534.14v-9.55c0-3,2.14-4.25,4.76-2.74l83.7,48.33a10.54,10.54,0,0,1,4.76,8.23Z"/><path class="cls-15" d="M71.66,565.13c0,3-2.14,4.25-4.75,2.74l-44.17-25.5A10.53,10.53,0,0,1,18,534.14v-9.55c0-3,2.14-4.25,4.76-2.74l44.17,25.5a10.57,10.57,0,0,1,4.75,8.24Z"/><polygon class="cls-7" points="136.01 140.18 113.83 127.37 113.83 125.19 136.01 137.99 136.01 140.18"/><polygon class="cls-7" points="149.85 140.49 113.83 119.7 113.83 121.88 149.85 142.68 149.85 140.49"/><polygon class="cls-7" points="154.29 143.06 154.29 145.24 170.15 154.4 170.15 152.21 154.29 143.06"/><polygon class="cls-7" points="132.47 127.15 159.79 142.92 159.79 140.74 132.47 124.97 132.47 127.15"/><polygon class="cls-7" points="125.97 121.21 113.83 114.2 113.83 116.39 125.97 123.4 125.97 121.21"/><polygon class="cls-7" points="162.96 142.57 162.96 144.75 170.15 148.9 170.15 146.72 162.96 142.57"/><polygon class="cls-7" points="147.1 127.92 147.1 130.11 170.15 143.41 170.15 141.23 147.1 127.92"/><polygon class="cls-7" points="145.52 127.01 113.83 108.71 113.83 110.9 145.52 129.19 145.52 127.01"/><polygon class="cls-7" points="124.17 109.19 113.83 103.22 113.83 105.4 124.17 111.37 124.17 109.19"/><polygon class="cls-7" points="127.76 111.26 127.76 113.45 170.15 137.92 170.15 135.73 127.76 111.26"/><polygon class="cls-7" points="151.23 119.32 113.83 97.73 113.83 99.91 151.23 121.5 151.23 119.32"/><polygon class="cls-7" points="152.92 120.29 152.92 122.48 170.15 132.43 170.15 130.24 152.92 120.29"/><polygon class="cls-7" points="191.82 450.12 169.65 437.31 169.65 435.13 191.82 447.93 191.82 450.12"/><polygon class="cls-7" points="205.67 450.44 169.65 429.64 169.65 431.82 205.67 452.62 205.67 450.44"/><polygon class="cls-7" points="210.11 453 210.11 455.18 225.97 464.34 225.97 462.15 210.11 453"/><polygon class="cls-7" points="188.29 437.1 215.61 452.86 215.61 450.68 188.29 434.91 188.29 437.1"/><polygon class="cls-7" points="181.78 431.15 169.65 424.14 169.65 426.33 181.78 433.34 181.78 431.15"/><polygon class="cls-7" points="218.78 452.51 218.78 454.69 225.97 458.84 225.97 456.66 218.78 452.51"/><polygon class="cls-7" points="202.92 437.86 202.92 440.05 225.97 453.35 225.97 451.17 202.92 437.86"/><polygon class="cls-7" points="201.34 436.95 169.65 418.65 169.65 420.84 201.34 439.13 201.34 436.95"/><polygon class="cls-7" points="179.99 419.13 169.65 413.16 169.65 415.35 179.99 421.31 179.99 419.13"/><polygon class="cls-7" points="183.58 421.2 183.58 423.39 225.97 447.86 225.97 445.67 183.58 421.2"/><polygon class="cls-7" points="207.04 429.26 169.65 407.67 169.65 409.85 207.04 431.44 207.04 429.26"/><polygon class="cls-7" points="208.74 430.24 208.74 432.42 225.97 442.37 225.97 440.18 208.74 430.24"/><polygon class="cls-7" points="111.95 222.98 89.77 210.17 89.77 207.99 111.95 220.79 111.95 222.98"/><polygon class="cls-7" points="125.8 223.29 89.77 202.5 89.77 204.68 125.8 225.48 125.8 223.29"/><polygon class="cls-7" points="130.23 225.86 130.23 228.04 146.09 237.19 146.09 235.01 130.23 225.86"/><polygon class="cls-7" points="108.42 209.95 135.73 225.72 135.73 223.54 108.42 207.77 108.42 209.95"/><polygon class="cls-7" points="101.91 204.01 89.77 197 89.77 199.19 101.91 206.19 101.91 204.01"/><polygon class="cls-7" points="138.9 225.37 138.9 227.55 146.09 231.7 146.09 229.52 138.9 225.37"/><polygon class="cls-7" points="123.05 210.72 123.05 212.91 146.09 226.21 146.09 224.03 123.05 210.72"/><polygon class="cls-7" points="121.46 209.81 89.77 191.51 89.77 193.7 121.46 211.99 121.46 209.81"/><polygon class="cls-7" points="100.11 191.99 89.77 186.02 89.77 188.2 100.11 194.17 100.11 191.99"/><polygon class="cls-7" points="103.7 194.06 103.7 196.25 146.09 220.72 146.09 218.53 103.7 194.06"/><polygon class="cls-7" points="127.17 202.12 89.77 180.53 89.77 182.71 127.17 204.3 127.17 202.12"/><polygon class="cls-7" points="128.86 203.09 128.86 205.28 146.09 215.23 146.09 213.04 128.86 203.09"/><polygon class="cls-7" points="434.46 343.69 412.28 330.89 412.28 328.7 434.46 341.51 434.46 343.69"/><polygon class="cls-7" points="448.3 344.01 412.28 323.21 412.28 325.4 448.3 346.19 448.3 344.01"/><polygon class="cls-7" points="452.74 346.57 452.74 348.76 468.6 357.91 468.6 355.73 452.74 346.57"/><polygon class="cls-7" points="430.92 330.67 458.24 346.44 458.24 344.25 430.92 328.48 430.92 330.67"/><polygon class="cls-7" points="424.41 324.73 412.28 317.72 412.28 319.9 424.41 326.91 424.41 324.73"/><polygon class="cls-7" points="461.41 346.08 461.41 348.27 468.6 352.42 468.6 350.23 461.41 346.08"/><polygon class="cls-7" points="445.55 331.44 445.55 333.62 468.6 346.93 468.6 344.74 445.55 331.44"/><polygon class="cls-7" points="443.97 330.52 412.28 312.23 412.28 314.41 443.97 332.71 443.97 330.52"/><polygon class="cls-7" points="422.62 312.7 412.28 306.73 412.28 308.92 422.62 314.89 422.62 312.7"/><polygon class="cls-7" points="426.21 314.78 426.21 316.96 468.6 341.43 468.6 339.25 426.21 314.78"/><polygon class="cls-7" points="449.68 322.83 412.28 301.24 412.28 303.43 449.68 325.02 449.68 322.83"/><polygon class="cls-7" points="451.37 323.81 451.37 326 468.6 335.94 468.6 333.76 451.37 323.81"/><path class="cls-7" d="M170.51,194.92l-15.4-30.09a3,3,0,0,0,1-2.45,7.83,7.83,0,0,0-3.59-6.22,3.44,3.44,0,0,0-1.73-.52c-1.42,0-2.33,1.12-2.33,2.86a7.83,7.83,0,0,0,3.59,6.22,3.44,3.44,0,0,0,1.73.52,3,3,0,0,0,.43,0l15.56,30.4,63.71,36.78.47-.82Zm-18-31a6.91,6.91,0,0,1-3.11-5.4c0-1.2.51-1.92,1.38-1.92a2.6,2.6,0,0,1,1.26.4,6.89,6.89,0,0,1,3.12,5.4c0,1.2-.52,1.92-1.39,1.92A2.63,2.63,0,0,1,152.54,163.9Z"/><path class="cls-7" d="M151.38,276.48,136,246.39a3,3,0,0,0,1-2.46,7.85,7.85,0,0,0-3.59-6.21,3.47,3.47,0,0,0-1.74-.52c-1.41,0-2.33,1.12-2.33,2.86a7.83,7.83,0,0,0,3.59,6.22,3.47,3.47,0,0,0,1.74.52,2.72,2.72,0,0,0,.42,0l15.56,30.4,63.71,36.78.47-.82Zm-18-31a6.89,6.89,0,0,1-3.12-5.4c0-1.2.52-1.92,1.38-1.92a2.57,2.57,0,0,1,1.26.4,6.89,6.89,0,0,1,3.12,5.39c0,1.21-.52,1.92-1.38,1.92A2.54,2.54,0,0,1,133.42,245.46Z"/><path class="cls-7" d="M419.71,346.49A3.47,3.47,0,0,0,418,346c-1.41,0-2.32,1.12-2.33,2.86a7.21,7.21,0,0,0,.93,3.32l-25.17,12.6L328,328.16l-.48.82,63.59,36.71.22.13L417.07,353a7,7,0,0,0,2.16,2.09,3.47,3.47,0,0,0,1.74.52c1.41,0,2.33-1.12,2.33-2.87A7.83,7.83,0,0,0,419.71,346.49Zm1.26,8.13a2.57,2.57,0,0,1-1.26-.39,6.89,6.89,0,0,1-3.12-5.4c0-1.2.52-1.92,1.38-1.92a2.57,2.57,0,0,1,1.26.4,6.89,6.89,0,0,1,3.12,5.39C422.35,353.91,421.83,354.62,421,354.62Z"/><path class="cls-7" d="M310.45,418.31l-.41-.85L259.12,442,196,405.51c0-.08,0-.15,0-.24a7.83,7.83,0,0,0-3.59-6.21,3.46,3.46,0,0,0-1.73-.53c-1.42,0-2.33,1.13-2.33,2.87a7.83,7.83,0,0,0,3.59,6.22,3.44,3.44,0,0,0,1.73.52,2.19,2.19,0,0,0,2.15-1.64L259.08,443ZM193.66,407.19a2.57,2.57,0,0,1-1.26-.39,6.88,6.88,0,0,1-3.11-5.4c0-1.2.51-1.92,1.38-1.92a2.6,2.6,0,0,1,1.26.4,6.91,6.91,0,0,1,3.12,5.39C195,406.48,194.53,407.19,193.66,407.19Z"/><g class="cls-19"><path class="cls-6" d="M313,387.24c-10.29-1.46-21.53-5.46-33.31-12.27a156.18,156.18,0,0,1-31.17-24.08,13.12,13.12,0,0,0,1.2.76c6.92,4,21.86,7.14,29.53,7.48,7,.33,19.09,5.08,22.3,4.12.18,3.32.45,6.39.8,8.75a17.31,17.31,0,0,0,5.32,10.17Z"/><path class="cls-17" d="M286.58,353.74a43,43,0,0,0,14.78-1.21c.07,3.27.15,6.94.2,10.67-3.21,1-15.3-3.74-22.3-4.07-7.67-.34-22.61-3.48-29.53-7.48a13.12,13.12,0,0,1-1.2-.76,6.73,6.73,0,0,1-2.12-2.11l5.35,1.1c3.07.81,4.83-1.06,5.35-4a142.71,142.71,0,0,0,1.25-17.32A159,159,0,0,0,272,345.34a38.51,38.51,0,0,0,7,4.88l.26.15.27.15C282.48,352.21,285.28,353.55,286.58,353.74Z"/><path class="cls-5" d="M283.8,433.42l-1.06-.57c-1.06-.58-2.13-1.18-3.2-1.8s-2.14-1.25-3.21-1.9l-1.07-.66c-.71-.44-1.42-.87-2.12-1.32-.42-.26-.83-.54-1.24-.8L270,425.12c-.46-.3-.91-.61-1.36-.92L266.84,423l-1.41-1-1.71-1.21-1.44-1.05-1.66-1.24-1.44-1.09-1.64-1.25L256.11,415l-1.62-1.28-1.43-1.17-1.59-1.32L250.05,410c-.53-.44-1.05-.89-1.56-1.34l-1.44-1.25-1.54-1.37-1.41-1.28-1.52-1.4-1.42-1.33-1.48-1.4-1.41-1.37-1.47-1.45c-.47-.45-.93-.91-1.39-1.38L234,395c-.46-.47-.92-.95-1.39-1.42l-1.42-1.5-1.36-1.44c-.48-.51-.95-1-1.42-1.54L227,387.64l-1.39-1.56c-.45-.5-.89-1-1.33-1.5s-.93-1.05-1.39-1.58l-1.3-1.52-1.35-1.59c-.44-.52-.88-1-1.31-1.57s-.87-1.06-1.3-1.59-.88-1.07-1.31-1.61-.89-1.11-1.33-1.66-.83-1-1.24-1.57-1-1.32-1.53-2c-.33-.43-.67-.86-1-1.3-.83-1.08-1.65-2.18-2.46-3.28l-1.14-1.57c-.44-.6-.88-1.2-1.31-1.81s-.76-1.07-1.14-1.6l-1.27-1.81c-.39-.55-.76-1.11-1.14-1.66l-1.23-1.79-1.15-1.73c-.39-.58-.78-1.16-1.16-1.75s-.76-1.17-1.14-1.76-.77-1.18-1.15-1.78l-1.09-1.74c-.38-.6-.76-1.2-1.13-1.81s-.73-1.18-1.09-1.77c-.25-.42-.5-.84-.76-1.26a17.31,17.31,0,0,1,4.66-1.49,27,27,0,0,1,11.12.83l5,1.36,32.78,6.6a6.73,6.73,0,0,0,2.12,2.11A156.18,156.18,0,0,0,279.7,375c11.78,6.81,23,10.81,33.31,12.27l13.88,13.2,18.91,18,4.76,4.27a87.86,87.86,0,0,1,12.71,14.13q1.71,2.38,3.19,4.79l-.78.38-1.1.53-1.13.49-1.12.49-1.13.44-1.16.45-1.13.39-1.2.41-1.16.35c-.4.12-.81.25-1.22.36s-.81.21-1.21.32l-1.21.31-1.29.28c-.73.16-1.48.31-2.23.44l-1.4.26-1.24.17-1.3.18c-.43.06-.87.09-1.31.14l-1.28.13c-.44,0-.89.06-1.33.09l-1.29.09-1.34,0c-.44,0-.88,0-1.32,0h-2.71c-.44,0-.89,0-1.33,0l-1.4-.05-1.36-.09-1.41-.11L328,448l-1.43-.15-1.38-.18-1.46-.21-1.39-.22-1.47-.25-1.42-.27-1.48-.3-1.44-.32-1.49-.35-1.44-.36-1.52-.4-1.46-.41-1.55-.46-1.43-.44-1.6-.53c-.48-.15-.95-.31-1.43-.48s-1.08-.38-1.62-.58l-1.44-.52-1.63-.64-1.44-.56-1.67-.7-1.44-.61-1.69-.75-1.43-.64-1.78-.85-1.36-.65-1.92-1-1.25-.63Z"/><path class="cls-4" d="M303.09,195.9a56.7,56.7,0,0,1,10.62,20.55,32.17,32.17,0,0,1,1.12,10.92c-.51,5.49-4.45,9.25-10,11.8-11.74,5.44-30.57,5.33-38.1,4.62,1.46.13,5.09-14.66,6.15-16.65a57.61,57.61,0,0,1,5.6-8.79,54,54,0,0,1-12.72,7.31c-2,.82-17.53,2.4-17.52,4.09,0-15.92,6.52-23.54,5.77-24-1.58,3.08-5.08,4.55-7.07,7.07-8.32,10.49-11.24,27.7-10.46,46.73a143.33,143.33,0,0,1-6.26-19.1q-.67-2.72-1.24-5.4a119.36,119.36,0,0,1-2.59-27.88c-1.63.53-3.22,1.12-4.76,1.79-.45-16,5-28.67,14.89-34.87s24.25-5.89,39.35.88a70.62,70.62,0,0,1,6.63,3.4A74,74,0,0,1,303.09,195.9Z"/><path class="cls-6" d="M309.2,248.77c9.19,20.6,13.74,42.12,12.75,60.13a37.68,37.68,0,0,0,6.81-10.77,214.69,214.69,0,0,1-4.42,30.62c-.39,1.69-.78,3.21-1.17,4.48-1.4,4.62-3.93,12.2-7.53,14.07a63.69,63.69,0,0,1-14.28,5.23,43,43,0,0,1-14.78,1.21c-1.3-.19-4.1-1.53-7-3.22a40.76,40.76,0,0,1-7.54-5.18,159,159,0,0,1-13.67-16.79c-5.1-7-10.48-15.1-15.27-23.14-3.58-6-6-16.48-7.41-22.69-.38-1.73-.77-3.71-1.15-5.87a331.2,331.2,0,0,1-4.27-36.37,143.33,143.33,0,0,0,6.26,19.1c-.78-19,2.14-36.24,10.46-46.73,2-2.52,5.49-4,7-7.08.79.44-5.75,8.06-5.73,24,0-1.69,15.51-3.27,17.52-4.09a54,54,0,0,0,12.72-7.31,57.61,57.61,0,0,0-5.6,8.79c-1.06,2-4.69,16.78-6.15,16.65,7.53.71,26.36.82,38.1-4.62C306.24,242.38,307.78,245.57,309.2,248.77Z"/><path class="cls-6" d="M230.08,236.92c0,.81,0,1.57.07,2.28A320.71,320.71,0,0,0,234.52,278c-4.47-3.31-9.38-14.25-11.82-23.29-2.91-10.76-1.21-19.35,3.78-19.2a6.15,6.15,0,0,1,2.84.9C229.57,236.58,229.82,236.74,230.08,236.92Z"/><path class="cls-6" d="M333.52,297.33c5,5.61,6.61,16.11,3.66,23.49-2.6,6.5-7.93,11.95-12.56,9.28l-.28-.18a213.93,213.93,0,0,0,4.46-31.35q.39-2,.66-4.2a8.61,8.61,0,0,1,1.23.59A11.47,11.47,0,0,1,333.52,297.33Z"/><path class="cls-4" d="M313.71,216.45c8.55,6.3,16.26,26.49,18,36.06,2.78,15.38,2.36,29.74-1.28,41.12a47,47,0,0,1-1.67,4.5A37.68,37.68,0,0,1,322,308.9c1-18-3.56-39.53-12.75-60.13-1.42-3.2-3-6.39-4.33-9.6,5.51-2.55,9.45-6.31,10-11.8A32.17,32.17,0,0,0,313.71,216.45Z"/></g></g></g></g></svg>